<svg xmlns="http://www.w3.org/2000/svg" viewBox="0 0 800 1160" preserveAspectRatio="xMidYMid slice" role="img" aria-hidden="true">
<defs>
  <radialGradient id="bg" cx="45%" cy="30%" r="85%"><stop offset="0" stop-color="#0F5A78"/><stop offset=".55" stop-color="#08354D"/><stop offset="1" stop-color="#041824"/></radialGradient>
  <linearGradient id="bone" x1="0" y1="0" x2="1" y2="1"><stop offset="0" stop-color="#F3F7FA"/><stop offset=".6" stop-color="#BFD0DB"/><stop offset="1" stop-color="#7F9BAD"/></linearGradient>
  <linearGradient id="boneD" x1="0" y1="0" x2="1" y2="1"><stop offset="0" stop-color="#C9D8E2"/><stop offset="1" stop-color="#5F7E92"/></linearGradient>
  <linearGradient id="metal" x1="0" y1="0" x2="1" y2="1"><stop offset="0" stop-color="#FFFFFF"/><stop offset=".5" stop-color="#C5D0D8"/><stop offset="1" stop-color="#7D8C97"/></linearGradient>
  <radialGradient id="glow"><stop offset="0" stop-color="#3EDBF0" stop-opacity=".9"/><stop offset="1" stop-color="#3EDBF0" stop-opacity="0"/></radialGradient>
  <radialGradient id="amber"><stop offset="0" stop-color="#FFD28A" stop-opacity=".95"/><stop offset="1" stop-color="#FF9A3C" stop-opacity="0"/></radialGradient>
  <linearGradient id="nerve" x1="0" y1="0" x2="1" y2="0"><stop offset="0" stop-color="#FFE9A8"/><stop offset="1" stop-color="#FFB547"/></linearGradient>
  <pattern id="dots" width="28" height="28" patternUnits="userSpaceOnUse"><circle cx="2" cy="2" r="1.2" fill="#3EDBF0" fill-opacity=".14"/></pattern>
  <filter id="blur"><feGaussianBlur stdDeviation="8"/></filter>
  <filter id="blur2"><feGaussianBlur stdDeviation="3"/></filter>
</defs><rect width="800" height="1160" fill="url(#bg)"/><rect width="800" height="1160" fill="url(#dots)"/><ellipse cx="420" cy="420" rx="260" ry="360" fill="url(#glow)" fill-opacity=".25" filter="url(#blur)"/><ellipse cx="360.0" cy="158.0" rx="54.0" ry="8.0" fill="#3EDBF0" fill-opacity=".35" stroke="#3EDBF0" stroke-opacity=".6"/><g transform="rotate(0 360.0 122.0)"><path d="M410.0 100 C450.0 84 510.0 94 524.0 112 C516.0 130 460.0 134 410.0 142 Z" fill="url(#boneD)"/><path d="M386.0 96 L426.0 96 L426.0 148 L386.0 148 Z" fill="url(#boneD)"/><rect x="300.0" y="90" width="94" height="64" rx="20" fill="url(#bone)"/><rect x="308.0" y="96" width="76" height="9" rx="4.5" fill="#fff" fill-opacity=".55"/></g><ellipse cx="371.4991190364745" cy="250.0" rx="54.0" ry="8.0" fill="#3EDBF0" fill-opacity=".35" stroke="#3EDBF0" stroke-opacity=".6"/><g transform="rotate(0 371.4991190364745 214.0)"><path d="M421.4991190364745 192 C461.4991190364745 176 521.4991190364744 186 535.4991190364744 204 C527.4991190364744 222 471.4991190364745 226 421.4991190364745 234 Z" fill="url(#boneD)"/><path d="M397.4991190364745 188 L437.4991190364745 188 L437.4991190364745 240 L397.4991190364745 240 Z" fill="url(#boneD)"/><rect x="311.4991190364745" y="182" width="94" height="64" rx="20" fill="url(#bone)"/><rect x="319.4991190364745" y="188" width="76" height="9" rx="4.5" fill="#fff" fill-opacity=".55"/></g><ellipse cx="379.60656192135156" cy="342.0" rx="54.0" ry="8.0" fill="#3EDBF0" fill-opacity=".35" stroke="#3EDBF0" stroke-opacity=".6"/><g transform="rotate(0 379.60656192135156 306.0)"><path d="M429.60656192135156 284 C469.60656192135156 268 529.6065619213516 278 543.6065619213516 296 C535.6065619213516 314 479.60656192135156 318 429.60656192135156 326 Z" fill="url(#boneD)"/><path d="M405.60656192135156 280 L445.60656192135156 280 L445.60656192135156 332 L405.60656192135156 332 Z" fill="url(#boneD)"/><rect x="319.60656192135156" y="274" width="94" height="64" rx="20" fill="url(#bone)"/><rect x="327.60656192135156" y="280" width="76" height="9" rx="4.5" fill="#fff" fill-opacity=".55"/></g><ellipse cx="381.93103062598624" cy="434.0" rx="54.0" ry="8.0" fill="#3EDBF0" fill-opacity=".35" stroke="#3EDBF0" stroke-opacity=".6"/><g transform="rotate(0 381.93103062598624 398.0)"><path d="M431.93103062598624 376 C471.93103062598624 360 531.9310306259863 370 545.9310306259863 388 C537.9310306259863 406 481.93103062598624 410 431.93103062598624 418 Z" fill="url(#boneD)"/><path d="M407.93103062598624 372 L447.93103062598624 372 L447.93103062598624 424 L407.93103062598624 424 Z" fill="url(#boneD)"/><rect x="321.93103062598624" y="366" width="94" height="64" rx="20" fill="url(#bone)"/><rect x="329.93103062598624" y="372" width="76" height="9" rx="4.5" fill="#fff" fill-opacity=".55"/></g><ellipse cx="377.78692088403096" cy="526.0" rx="54.0" ry="8.0" fill="#3EDBF0" fill-opacity=".35" stroke="#3EDBF0" stroke-opacity=".6"/><g transform="rotate(0 377.78692088403096 490.0)"><path d="M427.78692088403096 468 C467.78692088403096 452 527.7869208840309 462 541.7869208840309 480 C533.7869208840309 498 477.78692088403096 502 427.78692088403096 510 Z" fill="url(#boneD)"/><path d="M403.78692088403096 464 L443.78692088403096 464 L443.78692088403096 516 L403.78692088403096 516 Z" fill="url(#boneD)"/><rect x="317.78692088403096" y="458" width="94" height="64" rx="20" fill="url(#bone)"/><rect x="325.78692088403096" y="464" width="76" height="9" rx="4.5" fill="#fff" fill-opacity=".55"/></g><ellipse cx="368.3965418251513" cy="618.0" rx="54.0" ry="8.0" fill="#3EDBF0" fill-opacity=".35" stroke="#3EDBF0" stroke-opacity=".6"/><g transform="rotate(0 368.3965418251513 582.0)"><path d="M418.3965418251513 560 C458.3965418251513 544 518.3965418251513 554 532.3965418251513 572 C524.3965418251513 590 468.3965418251513 594 418.3965418251513 602 Z" fill="url(#boneD)"/><path d="M394.3965418251513 556 L434.3965418251513 556 L434.3965418251513 608 L394.3965418251513 608 Z" fill="url(#boneD)"/><rect x="308.3965418251513" y="550" width="94" height="64" rx="20" fill="url(#bone)"/><rect x="316.3965418251513" y="556" width="76" height="9" rx="4.5" fill="#fff" fill-opacity=".55"/></g><ellipse cx="356.5295947288485" cy="710.0" rx="54.0" ry="8.0" fill="#3EDBF0" fill-opacity=".35" stroke="#3EDBF0" stroke-opacity=".6"/><g transform="rotate(0 356.5295947288485 674.0)"><path d="M406.5295947288485 652 C446.5295947288485 636 506.5295947288485 646 520.5295947288485 664 C512.5295947288485 682 456.5295947288485 686 406.5295947288485 694 Z" fill="url(#boneD)"/><path d="M382.5295947288485 648 L422.5295947288485 648 L422.5295947288485 700 L382.5295947288485 700 Z" fill="url(#boneD)"/><rect x="296.5295947288485" y="642" width="94" height="64" rx="20" fill="url(#bone)"/><rect x="304.5295947288485" y="648" width="76" height="9" rx="4.5" fill="#fff" fill-opacity=".55"/></g><ellipse cx="345.6862469845663" cy="802.0" rx="54.0" ry="8.0" fill="#3EDBF0" fill-opacity=".35" stroke="#3EDBF0" stroke-opacity=".6"/><g transform="rotate(0 345.6862469845663 766.0)"><path d="M395.6862469845663 744 C435.6862469845663 728 495.6862469845663 738 509.6862469845663 756 C501.6862469845663 774 445.6862469845663 778 395.6862469845663 786 Z" fill="url(#boneD)"/><path d="M371.6862469845663 740 L411.6862469845663 740 L411.6862469845663 792 L371.6862469845663 792 Z" fill="url(#boneD)"/><rect x="285.6862469845663" y="734" width="94" height="64" rx="20" fill="url(#bone)"/><rect x="293.6862469845663" y="740" width="76" height="9" rx="4.5" fill="#fff" fill-opacity=".55"/></g><ellipse cx="339.06475437443066" cy="894.0" rx="54.0" ry="8.0" fill="#3EDBF0" fill-opacity=".35" stroke="#3EDBF0" stroke-opacity=".6"/><g transform="rotate(0 339.06475437443066 858.0)"><path d="M389.06475437443066 836 C429.06475437443066 820 489.06475437443066 830 503.06475437443066 848 C495.06475437443066 866 439.06475437443066 870 389.06475437443066 878 Z" fill="url(#boneD)"/><path d="M365.06475437443066 832 L405.06475437443066 832 L405.06475437443066 884 L365.06475437443066 884 Z" fill="url(#boneD)"/><rect x="279.06475437443066" y="826" width="94" height="64" rx="20" fill="url(#bone)"/><rect x="287.06475437443066" y="832" width="76" height="9" rx="4.5" fill="#fff" fill-opacity=".55"/></g><g transform="rotate(0 338.61813247315996 950.0)"><path d="M388.61813247315996 928 C428.61813247315996 912 488.61813247315996 922 502.61813247315996 940 C494.61813247315996 958 438.61813247315996 962 388.61813247315996 970 Z" fill="url(#boneD)"/><path d="M364.61813247315996 924 L404.61813247315996 924 L404.61813247315996 976 L364.61813247315996 976 Z" fill="url(#boneD)"/><rect x="278.61813247315996" y="918" width="94" height="64" rx="20" fill="url(#bone)"/><rect x="286.61813247315996" y="924" width="76" height="9" rx="4.5" fill="#fff" fill-opacity=".55"/></g><path d="M486 150 L497 242 L506 334 L508 426 L504 518 L494 610 L483 702 L472 794 L465 886 L465 978" fill="none" stroke="#3EDBF0" stroke-width="10" stroke-linecap="round" stroke-opacity=".25" filter="url(#blur2)"/><path d="M486 150 L497 242 L506 334 L508 426 L504 518 L494 610 L483 702 L472 794 L465 886 L465 978" fill="none" stroke="#D8F6FB" stroke-width="4" stroke-linecap="round"/><circle cx="505.60656192135156" cy="334" r="34" fill="url(#glow)"/><rect x="496.60656192135156" y="325" width="18" height="18" rx="5" fill="url(#metal)" stroke="#3EDBF0" stroke-width="2"/><circle cx="507.93103062598624" cy="426" r="34" fill="url(#glow)"/><rect x="498.93103062598624" y="417" width="18" height="18" rx="5" fill="url(#metal)" stroke="#3EDBF0" stroke-width="2"/><circle cx="503.78692088403096" cy="518" r="34" fill="url(#glow)"/><rect x="494.78692088403096" y="509" width="18" height="18" rx="5" fill="url(#metal)" stroke="#3EDBF0" stroke-width="2"/><circle cx="494.3965418251513" cy="610" r="34" fill="url(#glow)"/><rect x="485.3965418251513" y="601" width="18" height="18" rx="5" fill="url(#metal)" stroke="#3EDBF0" stroke-width="2"/><path d="M527.9310306259863 442 A30 30 0 0 1 527.9310306259863 502" fill="none" stroke="#3EDBF0" stroke-width="3" stroke-linecap="round" stroke-opacity="0.70"/><path d="M531.5310306259863 424 A48 48 0 0 1 531.5310306259863 520" fill="none" stroke="#3EDBF0" stroke-width="3" stroke-linecap="round" stroke-opacity="0.50"/><path d="M535.1310306259863 406 A66 66 0 0 1 535.1310306259863 538" fill="none" stroke="#3EDBF0" stroke-width="3" stroke-linecap="round" stroke-opacity="0.30"/><path d="M465 978 C525 1058 560 980 620 980" fill="none" stroke="#D8F6FB" stroke-width="4" stroke-linecap="round"/><g transform="rotate(-6 655.0 995.0)"><rect x="560" y="930" width="190" height="130" rx="38" fill="url(#metal)"/><rect x="570" y="940" width="170" height="110" rx="30" fill="none" stroke="#fff" stroke-opacity=".7" stroke-width="3"/><circle cx="655.0" cy="995.0" r="14" fill="#3EDBF0" fill-opacity=".85"/><rect x="744" y="977.0" width="26" height="36" rx="8" fill="#5F7482"/></g></svg>